<svg width="24" height="24" viewBox="0 0 24 24" fill="none" xmlns="http://www.w3.org/2000/svg">
<path d="M5.84292 4.56801C7.47586 2.93508 9.6906 2.0177 11.9999 2.0177C14.3092 2.0177 16.524 2.93508 18.1569 4.56801C19.7899 6.20095 20.7072 8.41569 20.7072 10.725C20.7072 13.0343 19.7899 15.2491 18.1569 16.882L16.9699 18.056C16.0953 18.9147 14.9599 20.0187 13.5639 21.368C13.1443 21.7737 12.5836 22.0005 11.9999 22.0005C11.4163 22.0005 10.8555 21.7737 10.4359 21.368L6.94592 17.972C6.50592 17.5413 6.13826 17.178 5.84292 16.882C5.03434 16.0735 4.39293 15.1136 3.95532 14.0572C3.51771 13.0008 3.29248 11.8685 3.29248 10.725C3.29248 9.58154 3.51771 8.44927 3.95532 7.39284C4.39293 6.33642 5.03434 5.37654 5.84292 4.56801ZM17.0969 5.63001C16.4277 4.96073 15.6332 4.42982 14.7588 4.06758C13.8844 3.70534 12.9472 3.51887 12.0008 3.51883C10.0893 3.51873 8.2561 4.27797 6.90442 5.62951C5.55275 6.98106 4.79333 8.8142 4.79324 10.7257C4.79314 12.6371 5.55238 14.4703 6.90392 15.822L8.39092 17.289C9.20959 18.0903 10.2389 19.0903 11.4789 20.289C11.6187 20.4245 11.8056 20.5003 12.0002 20.5005C12.1948 20.5007 12.3819 20.4252 12.5219 20.29L15.9169 16.988C16.3856 16.528 16.7789 16.1393 17.0969 15.822C17.7663 15.1528 18.2972 14.3582 18.6595 13.4838C19.0217 12.6093 19.2082 11.672 19.2082 10.7255C19.2082 9.77899 19.0217 8.84173 18.6595 7.96726C18.2972 7.0928 17.7663 6.29926 17.0969 5.63001ZM11.9999 7.99901C12.3987 7.99173 12.7949 8.06399 13.1655 8.21156C13.536 8.35913 13.8734 8.57906 14.158 8.8585C14.4426 9.13793 14.6686 9.47128 14.8229 9.83906C14.9772 10.2068 15.0567 10.6017 15.0567 11.0005C15.0567 11.3994 14.9772 11.7942 14.8229 12.162C14.6686 12.5298 14.4426 12.8631 14.158 13.1425C13.8734 13.422 13.536 13.6419 13.1655 13.7895C12.7949 13.937 12.3987 14.0093 11.9999 14.002C11.2134 13.9877 10.4639 13.6651 9.91269 13.1038C9.36152 12.5425 9.05271 11.7872 9.05271 11.0005C9.05271 10.2138 9.36152 9.45857 9.91269 8.89724C10.4639 8.33591 11.2134 8.01337 11.9999 7.99901ZM11.9999 9.49901C11.7995 9.49384 11.6 9.52885 11.4133 9.60198C11.2266 9.67512 11.0565 9.78489 10.9129 9.92483C10.7693 10.0648 10.6552 10.232 10.5772 10.4168C10.4993 10.6015 10.4592 10.8 10.4592 11.0005C10.4592 11.201 10.4993 11.3995 10.5772 11.5842C10.6552 11.769 10.7693 11.9363 10.9129 12.0762C11.0565 12.2161 11.2266 12.3259 11.4133 12.399C11.6 12.4722 11.7995 12.5072 11.9999 12.502C12.3885 12.4878 12.7565 12.3235 13.0264 12.0435C13.2963 11.7636 13.4471 11.3899 13.4471 11.001C13.4471 10.6121 13.2963 10.2384 13.0264 9.95849C12.7565 9.67855 12.3885 9.5142 11.9999 9.50001" fill="#888888"/>
</svg>
