<svg width="77" height="67" viewBox="0 0 77 67" fill="none" xmlns="http://www.w3.org/2000/svg">
<path d="M66.7388 65C68.7832 65 70.7438 64.1878 72.1893 62.7423C73.6349 61.2967 74.447 59.3361 74.447 57.2917C74.447 55.2474 73.6349 53.2868 72.1893 51.8412C70.7438 50.3956 68.7832 49.5835 66.7388 49.5835C64.6945 49.5835 62.7338 50.3956 61.2883 51.8412C59.8427 53.2868 59.0306 55.2474 59.0306 57.2917C59.0306 59.3361 59.8427 61.2967 61.2883 62.7423C62.7338 64.1878 64.6945 65 66.7388 65ZM43.6141 65C45.6585 65 47.6191 64.1878 49.0647 62.7423C50.5102 61.2967 51.3223 59.3361 51.3223 57.2917C51.3223 55.2474 50.5102 53.2868 49.0647 51.8412C47.6191 50.3956 45.6585 49.5835 43.6141 49.5835C41.5698 49.5835 39.6091 50.3956 38.1636 51.8412C36.718 53.2868 35.9059 55.2474 35.9059 57.2917C35.9059 59.3361 36.718 61.2967 38.1636 62.7423C39.6091 64.1878 41.5698 65 43.6141 65Z" stroke="#1B1400" stroke-width="4" stroke-linecap="round" stroke-linejoin="round"/>
<path d="M59.0306 57.7028C56.3532 56.7496 54.0536 56.729 51.3223 57.7028M74.447 57.2917L72.9773 41.1147C72.5508 36.4256 71.1017 35.6162 66.7388 34.1671M35.9059 57.2917L37.3756 41.1147C37.8021 36.4281 39.2513 35.6162 43.6141 34.1671" stroke="#1B1400" stroke-width="4" stroke-linecap="round" stroke-linejoin="round"/>
<path d="M2.67671 10.193C3.64371 1.39745 11.3827 0.549832 16.6505 3.60305C18.3069 4.56408 19.9335 4.56408 21.5929 3.60305C26.8607 0.549832 34.5997 1.39745 35.5667 10.193C36.5366 19.0154 31.5673 28.3511 28.9051 31.9266C28.2992 32.7414 27.3233 33.1294 26.3085 33.1294C25.4976 33.1294 24.7065 32.8791 24.0431 32.4128C23.3797 31.9465 22.8763 31.2869 22.6017 30.5239L21.6616 27.9153C21.4727 27.3933 21.1275 26.9422 20.673 26.6233C20.2185 26.3044 19.6769 26.1334 19.1217 26.1334C18.5665 26.1334 18.0248 26.3044 17.5704 26.6233C17.1159 26.9422 16.7707 27.3933 16.5818 27.9153L15.6417 30.5239C15.3671 31.2869 14.8637 31.9465 14.2003 32.4128C13.5369 32.8791 12.7457 33.1294 11.9348 33.1294C10.9201 33.1294 9.94115 32.7414 9.33827 31.9266C6.67603 28.3511 1.70673 19.0154 2.67671 10.193Z" stroke="#1B1400" stroke-width="4" stroke-linecap="round" stroke-linejoin="round"/>
<path d="M22.9748 10.6346C19.8111 11.7867 18.1099 11.7628 15.2686 10.6346" stroke="#1B1400" stroke-width="4" stroke-linecap="round" stroke-linejoin="round"/>
</svg>
