<svg width="62" height="69" viewBox="0 0 62 69" fill="none" xmlns="http://www.w3.org/2000/svg">
<path d="M2.11206 32.0398C2.11206 43.2411 3.71534 51.2466 10.1357 60.8483C15.0141 67.3372 21.532 68.9622 28.4795 64.4159C30.0178 63.4482 31.9822 63.4482 33.5241 64.4159C40.468 68.9658 46.9858 67.3372 51.8643 60.8483C58.2846 51.243 59.8879 43.2411 59.8879 32.0434C59.8879 22.4346 52.702 12.8329 43.8406 12.8329C39.2655 12.8329 35.1382 15.3354 32.2133 18.0328C31.8811 18.3342 31.4485 18.5012 31 18.5012C30.5514 18.5012 30.1189 18.3342 29.7867 18.0328C26.8654 15.339 22.7344 12.8329 18.1593 12.8329C9.29793 12.8329 2.11206 22.4382 2.11206 32.0398Z" stroke="#1B1400" stroke-width="4" stroke-linecap="round" stroke-linejoin="round"/>
<path d="M12.945 34.4989C12.945 29.1907 14.5844 26.0492 18.3615 23.6659M31 16.444C31 12.1108 34.1307 2 41.8329 2" stroke="#1B1400" stroke-width="4" stroke-linecap="round" stroke-linejoin="round"/>
</svg>
