<svg width="61" height="67" viewBox="0 0 61 67" fill="none" xmlns="http://www.w3.org/2000/svg">
<path d="M30.4216 56.6H9.6282M30.4216 56.6V60.8C30.4216 61.9139 29.9834 62.9822 29.2035 63.7698C28.4236 64.5575 27.3659 65 26.2629 65H13.7869C12.6839 65 11.6262 64.5575 10.8462 63.7698C10.0663 62.9822 9.6282 61.9139 9.6282 60.8V56.6M30.4216 56.6L37.9931 6.8384C38.0843 6.24004 38.0462 5.62886 37.8816 5.04673C37.717 4.46461 37.4298 3.9253 37.0395 3.46576C36.6493 3.00623 36.1653 2.63732 35.6207 2.38433C35.0761 2.13133 34.4838 2.00023 33.8844 2H6.15987C5.56019 1.99983 4.96758 2.13063 4.42266 2.38345C3.87773 2.63627 3.39339 3.00512 3.00285 3.4647C2.61231 3.92429 2.3248 4.46374 2.16004 5.04606C1.99528 5.62838 1.95717 6.23981 2.04832 6.8384L9.6282 56.6M53.4551 65V34.2L59 25.8V3.4M47.9102 6.2H59M47.9102 14.6H59M47.9102 23H59M20.1857 17.4V34.2M11.8683 25.8H28.503" stroke="#1B1400" stroke-width="4" stroke-linecap="round" stroke-linejoin="round"/>
</svg>
