<svg width="59" height="70" viewBox="0 0 59 70" fill="none" xmlns="http://www.w3.org/2000/svg">
<path d="M41.5312 8.875H50.125C51.9484 8.875 53.697 9.59933 54.9864 10.8886C56.2757 12.178 57 13.9266 57 15.75V60.4375C57 62.2609 56.2757 64.0095 54.9864 65.2989C53.697 66.5882 51.9484 67.3125 50.125 67.3125H8.875C7.05164 67.3125 5.30295 66.5882 4.01364 65.2989C2.72433 64.0095 2 62.2609 2 60.4375V15.75C2 13.9266 2.72433 12.178 4.01364 10.8886C5.30295 9.59933 7.05164 8.875 8.875 8.875H17.4688" stroke="#1B1400" stroke-width="4" stroke-linecap="round" stroke-linejoin="round"/>
<path d="M17.8847 7.20781C18.2565 5.72048 19.1147 4.40008 20.323 3.45649C21.5313 2.51289 23.0203 2.00023 24.5534 2H34.4431C35.9762 2.00023 37.4652 2.51289 38.6736 3.45649C39.8819 4.40008 40.7401 5.72048 41.1119 7.20781L43.25 15.75H15.75L17.8847 7.20781Z" stroke="#1B1400" stroke-width="4" stroke-linecap="round" stroke-linejoin="round"/>
<path d="M19.1875 36.375H39.8125M19.1875 50.125H39.8125" stroke="#1B1400" stroke-width="4" stroke-linecap="round"/>
</svg>
