<svg width="15" height="15" viewBox="0 0 15 15" fill="none" xmlns="http://www.w3.org/2000/svg">
<path fill-rule="evenodd" clip-rule="evenodd" d="M3.125 2.5C2.95924 2.5 2.80027 2.56585 2.68306 2.68306C2.56585 2.80027 2.5 2.95924 2.5 3.125V11.875C2.5 12.0408 2.56585 12.1997 2.68306 12.3169C2.80027 12.4342 2.95924 12.5 3.125 12.5H11.875C12.0408 12.5 12.1997 12.4342 12.3169 12.3169C12.4342 12.1997 12.5 12.0408 12.5 11.875V8.58563C12.5 8.41987 12.5658 8.26089 12.6831 8.14368C12.8003 8.02647 12.9592 7.96063 13.125 7.96063C13.2908 7.96063 13.4497 8.02647 13.5669 8.14368C13.6842 8.26089 13.75 8.41987 13.75 8.58563V11.875C13.75 12.3723 13.5525 12.8492 13.2008 13.2008C12.8492 13.5525 12.3723 13.75 11.875 13.75H3.125C2.62772 13.75 2.15081 13.5525 1.79917 13.2008C1.44754 12.8492 1.25 12.3723 1.25 11.875V3.125C1.25 2.62772 1.44754 2.15081 1.79917 1.79917C2.15081 1.44754 2.62772 1.25 3.125 1.25H6.26062C6.42639 1.25 6.58536 1.31585 6.70257 1.43306C6.81978 1.55027 6.88562 1.70924 6.88562 1.875C6.88562 2.04076 6.81978 2.19973 6.70257 2.31694C6.58536 2.43415 6.42639 2.5 6.26062 2.5H3.125Z" fill="#1B1400"/>
<path fill-rule="evenodd" clip-rule="evenodd" d="M13.3818 1.60754C13.4943 1.72037 13.5575 1.8732 13.5575 2.03254C13.5575 2.19188 13.4943 2.34472 13.3818 2.45754L7.89932 7.94879C7.8436 8.00454 7.77745 8.04876 7.70463 8.07894C7.63182 8.10911 7.55377 8.12464 7.47495 8.12464C7.39613 8.12464 7.31808 8.10911 7.24527 8.07894C7.17245 8.04876 7.10629 8.00454 7.05057 7.94879C6.93806 7.83597 6.87488 7.68313 6.87488 7.52379C6.87488 7.36445 6.93806 7.21162 7.05057 7.09879L12.5337 1.60754C12.6462 1.49514 12.7987 1.43201 12.9578 1.43201C13.1168 1.43201 13.2693 1.49514 13.3818 1.60754Z" fill="#1B1400"/>
<path fill-rule="evenodd" clip-rule="evenodd" d="M13.15 1.25C13.4813 1.25 13.75 1.51875 13.75 1.85125V5C13.75 5.33187 13.4563 5.625 13.125 5.625C12.7938 5.625 12.5 5.33187 12.5 5V2.5H10C9.66875 2.5 9.375 2.20688 9.375 1.875C9.375 1.54312 9.64375 1.25 9.975 1.25H13.15Z" fill="#1B1400"/>
</svg>
