<svg width="24" height="24" viewBox="0 0 24 24" fill="none" xmlns="http://www.w3.org/2000/svg">
<path d="M15.6292 14.891L16.0852 14.438L15.0262 13.374L14.5722 13.827L15.6292 14.891ZM17.6142 14.248L19.5252 15.287L20.2402 13.969L18.3302 12.931L17.6142 14.248ZM19.8922 17.351L18.4722 18.764L19.5292 19.827L20.9492 18.415L19.8922 17.351ZM17.6062 19.218C16.1562 19.354 12.4062 19.233 8.34417 15.195L7.28617 16.258C11.7182 20.665 15.9372 20.881 17.7462 20.712L17.6062 19.218ZM8.34417 15.195C4.47317 11.345 3.83117 8.10796 3.75117 6.70296L2.25317 6.78796C2.35317 8.55596 3.14817 12.144 7.28617 16.258L8.34417 15.195ZM9.71917 9.01496L10.0062 8.72896L8.95017 7.66596L8.66317 7.95096L9.71917 9.01496ZM10.2342 5.09396L8.97417 3.40996L7.77317 4.30996L9.03317 5.99296L10.2342 5.09396ZM4.73317 3.04296L3.16317 4.60296L4.22117 5.66696L5.79017 4.10696L4.73317 3.04296ZM9.19117 8.48296C8.66117 7.95096 8.66117 7.95096 8.66117 7.95296H8.65917L8.65617 7.95696C8.60865 8.00487 8.5661 8.05748 8.52917 8.11396C8.47517 8.19396 8.41617 8.29896 8.36617 8.43196C8.24445 8.77529 8.21412 9.14437 8.27817 9.50296C8.41217 10.368 9.00817 11.511 10.5342 13.029L11.5922 11.965C10.1632 10.545 9.82317 9.68096 9.76017 9.27296C9.73017 9.07896 9.76117 8.98296 9.77017 8.96096C9.77617 8.94763 9.77617 8.94563 9.77017 8.95496C9.76126 8.96876 9.75122 8.9818 9.74017 8.99396L9.73017 9.00396L9.72017 9.01296L9.19117 8.48296ZM10.5342 13.029C12.0612 14.547 13.2102 15.139 14.0762 15.271C14.5192 15.339 14.8762 15.285 15.1472 15.184C15.299 15.1284 15.4408 15.0487 15.5672 14.948L15.6172 14.903L15.6242 14.897L15.6272 14.894L15.6282 14.892C15.6282 14.892 15.6292 14.891 15.1002 14.359C14.5702 13.827 14.5732 13.826 14.5732 13.826L14.5752 13.824L14.5772 13.822L14.5832 13.817L14.5932 13.807L14.6312 13.777C14.6405 13.771 14.6382 13.7716 14.6242 13.779C14.5992 13.788 14.5012 13.819 14.3042 13.789C13.8902 13.725 13.0202 13.385 11.5922 11.965L10.5342 13.029ZM8.97417 3.40896C7.95417 2.04896 5.95017 1.83296 4.73317 3.04296L5.79017 4.10696C6.32217 3.57796 7.26617 3.63296 7.77317 4.30996L8.97417 3.40896ZM3.75217 6.70396C3.73217 6.35796 3.89117 5.99596 4.22117 5.66796L3.16217 4.60396C2.62517 5.13796 2.20217 5.89396 2.25317 6.78796L3.75217 6.70396ZM18.4722 18.764C18.1982 19.038 17.9022 19.192 17.6072 19.219L17.7462 20.712C18.4812 20.643 19.0822 20.273 19.5302 19.828L18.4722 18.764ZM10.0062 8.72896C10.9912 7.74996 11.0642 6.20296 10.2352 5.09496L9.03417 5.99396C9.43717 6.53296 9.37717 7.23996 8.94917 7.66696L10.0062 8.72896ZM19.5262 15.288C20.3432 15.732 20.4702 16.778 19.8932 17.352L20.9512 18.415C22.2912 17.082 21.8782 14.859 20.2412 13.97L19.5262 15.288ZM16.0852 14.439C16.4692 14.057 17.0872 13.963 17.6152 14.249L18.3312 12.932C17.2472 12.342 15.9032 12.505 15.0272 13.375L16.0852 14.439Z" fill="#888888"/>
</svg>
