<svg width="32" height="32" viewBox="0 0 32 32" fill="none" xmlns="http://www.w3.org/2000/svg">
<path d="M7.79067 6.09066C9.96792 3.91341 12.9209 2.69025 16 2.69025C19.0791 2.69025 22.0321 3.91341 24.2093 6.09066C26.3866 8.26791 27.6098 11.2209 27.6098 14.3C27.6098 17.3791 26.3866 20.3321 24.2093 22.5093L22.6267 24.0747C21.4604 25.2196 19.9467 26.6916 18.0853 28.4907C17.5259 29.0316 16.7782 29.334 16 29.334C15.2218 29.334 14.4741 29.0316 13.9147 28.4907L9.26133 23.9627C8.67467 23.3884 8.18444 22.904 7.79067 22.5093C6.71255 21.4313 5.85734 20.1515 5.27386 18.7429C4.69039 17.3343 4.39008 15.8246 4.39008 14.3C4.39008 12.7754 4.69039 11.2657 5.27386 9.85711C5.85734 8.44854 6.71255 7.1687 7.79067 6.09066ZM22.796 7.50666C21.9037 6.61429 20.8444 5.9064 19.6785 5.42342C18.5127 4.94043 17.2631 4.69181 16.0011 4.69175C13.4525 4.69162 11.0082 5.70394 9.206 7.506C7.40376 9.30805 6.39121 11.7522 6.39108 14.3009C6.39096 16.8495 7.40327 19.2938 9.20533 21.096L11.188 23.052C12.2796 24.1204 13.652 25.4538 15.3053 27.052C15.4917 27.2326 15.7409 27.3337 16.0004 27.334C16.2599 27.3342 16.5093 27.2336 16.696 27.0533L21.2227 22.6507C21.8476 22.0373 22.372 21.5191 22.796 21.096C23.6885 20.2037 24.3964 19.1443 24.8794 17.9783C25.3624 16.8124 25.611 15.5627 25.611 14.3007C25.611 13.0386 25.3624 11.789 24.8794 10.623C24.3964 9.45705 23.6885 8.39899 22.796 7.50666ZM16 10.6653C16.5317 10.6556 17.06 10.752 17.554 10.9487C18.0481 11.1455 18.498 11.4387 18.8774 11.8113C19.2569 12.1839 19.5583 12.6283 19.764 13.1187C19.9697 13.6091 20.0757 14.1355 20.0757 14.6673C20.0757 15.1991 19.9697 15.7256 19.764 16.2159C19.5583 16.7063 19.2569 17.1508 18.8774 17.5234C18.498 17.8959 18.0481 18.1892 17.554 18.3859C17.06 18.5827 16.5317 18.679 16 18.6693C14.9513 18.6502 13.9519 18.2201 13.217 17.4717C12.4821 16.7233 12.0704 15.7163 12.0704 14.6673C12.0704 13.6184 12.4821 12.6114 13.217 11.863C13.9519 11.1145 14.9513 10.6845 16 10.6653ZM16 12.6653C15.7327 12.6584 15.4668 12.7051 15.2179 12.8026C14.969 12.9001 14.7421 13.0465 14.5506 13.2331C14.3592 13.4197 14.207 13.6427 14.1031 13.889C13.9992 14.1354 13.9457 14.4 13.9457 14.6673C13.9457 14.9347 13.9992 15.1993 14.1031 15.4456C14.207 15.692 14.3592 15.915 14.5506 16.1016C14.7421 16.2882 14.969 16.4345 15.2179 16.532C15.4668 16.6295 15.7327 16.6762 16 16.6693C16.5181 16.6504 17.0088 16.4313 17.3686 16.058C17.7285 15.6848 17.9296 15.1865 17.9296 14.668C17.9296 14.1495 17.7285 13.6512 17.3686 13.278C17.0088 12.9047 16.5181 12.6856 16 12.6667" fill="black"/>
</svg>
