<svg width="69" height="65" viewBox="0 0 69 65" fill="none" xmlns="http://www.w3.org/2000/svg">
<path d="M31.3184 2V8.36316M12.2289 2V8.36316M12.2289 5.18158H9.04736C7.35975 5.18158 5.74125 5.85198 4.54793 7.04531C3.35461 8.23863 2.6842 9.85712 2.6842 11.5447V24.2711C2.6842 29.3339 4.69541 34.1894 8.27538 37.7694C11.8554 41.3493 16.7108 43.3605 21.7737 43.3605C26.8365 43.3605 31.692 41.3493 35.272 37.7694C38.8519 34.1894 40.8632 29.3339 40.8632 24.2711V11.5447C40.8632 9.85712 40.1927 8.23863 38.9994 7.04531C37.8061 5.85198 36.1876 5.18158 34.5 5.18158H31.3184" stroke="#1B1400" stroke-width="4" stroke-linecap="round" stroke-linejoin="round"/>
<path d="M21.7737 43.3605C21.7737 48.4234 23.7849 53.2789 27.3649 56.8588C30.9448 60.4388 35.8003 62.45 40.8632 62.45C45.926 62.45 50.7815 60.4388 54.3615 56.8588C57.9414 53.2789 59.9526 48.4234 59.9526 43.3605V33.8158" stroke="#1B1400" stroke-width="4" stroke-linecap="round" stroke-linejoin="round"/>
<path d="M59.9526 33.8158C63.4669 33.8158 66.3158 30.9669 66.3158 27.4526C66.3158 23.9384 63.4669 21.0895 59.9526 21.0895C56.4384 21.0895 53.5895 23.9384 53.5895 27.4526C53.5895 30.9669 56.4384 33.8158 59.9526 33.8158Z" stroke="#1B1400" stroke-width="4" stroke-linecap="round" stroke-linejoin="round"/>
</svg>
